<mxfile host="app.diagrams.net" agent="Mozilla/5.0 (Windows NT 10.0; Win64; x64) AppleWebKit/537.36 (KHTML, like Gecko) Chrome/128.0.0.0 Safari/537.36 OPR/114.0.0.0" version="26.0.12">
  <diagram name="Página-1" id="4-glS8nae8PrrLe-wsaU">
    <mxGraphModel dx="6984" dy="2170" grid="1" gridSize="10" guides="1" tooltips="1" connect="1" arrows="1" fold="1" page="1" pageScale="1" pageWidth="827" pageHeight="1169" math="0" shadow="0">
      <root>
        <mxCell id="0" />
        <mxCell id="1" parent="0" />
        <mxCell id="-omg9IF0iPAO64ioV_1g-1" value="TIENDAS" style="rounded=1;whiteSpace=wrap;html=1;" vertex="1" parent="1">
          <mxGeometry x="-600" y="340" width="120" height="60" as="geometry" />
        </mxCell>
        <mxCell id="-omg9IF0iPAO64ioV_1g-2" value="Id(Pk)" style="ellipse;whiteSpace=wrap;html=1;" vertex="1" parent="1">
          <mxGeometry x="-740" y="220" width="120" height="80" as="geometry" />
        </mxCell>
        <mxCell id="-omg9IF0iPAO64ioV_1g-3" value="Nombre" style="ellipse;whiteSpace=wrap;html=1;" vertex="1" parent="1">
          <mxGeometry x="-600" y="220" width="120" height="80" as="geometry" />
        </mxCell>
        <mxCell id="-omg9IF0iPAO64ioV_1g-4" value="Dirección" style="ellipse;whiteSpace=wrap;html=1;" vertex="1" parent="1">
          <mxGeometry x="-470" y="220" width="120" height="80" as="geometry" />
        </mxCell>
        <mxCell id="-omg9IF0iPAO64ioV_1g-5" value="Administrador" style="ellipse;whiteSpace=wrap;html=1;" vertex="1" parent="1">
          <mxGeometry x="-600" y="430" width="120" height="80" as="geometry" />
        </mxCell>
        <mxCell id="-omg9IF0iPAO64ioV_1g-9" value="" style="endArrow=none;html=1;rounded=0;entryX=0.5;entryY=1;entryDx=0;entryDy=0;exitX=0.5;exitY=0;exitDx=0;exitDy=0;" edge="1" parent="1" source="-omg9IF0iPAO64ioV_1g-1" target="-omg9IF0iPAO64ioV_1g-3">
          <mxGeometry width="50" height="50" relative="1" as="geometry">
            <mxPoint x="-560" y="350" as="sourcePoint" />
            <mxPoint x="-510" y="300" as="targetPoint" />
          </mxGeometry>
        </mxCell>
        <mxCell id="-omg9IF0iPAO64ioV_1g-10" value="" style="endArrow=none;html=1;rounded=0;entryX=0.5;entryY=1;entryDx=0;entryDy=0;" edge="1" parent="1" source="-omg9IF0iPAO64ioV_1g-1" target="-omg9IF0iPAO64ioV_1g-4">
          <mxGeometry width="50" height="50" relative="1" as="geometry">
            <mxPoint x="-440" y="350" as="sourcePoint" />
            <mxPoint x="-390" y="300" as="targetPoint" />
          </mxGeometry>
        </mxCell>
        <mxCell id="-omg9IF0iPAO64ioV_1g-11" value="" style="endArrow=none;html=1;rounded=0;entryX=0;entryY=0;entryDx=0;entryDy=0;exitX=0.5;exitY=1;exitDx=0;exitDy=0;" edge="1" parent="1" source="-omg9IF0iPAO64ioV_1g-2" target="-omg9IF0iPAO64ioV_1g-1">
          <mxGeometry width="50" height="50" relative="1" as="geometry">
            <mxPoint x="-700" y="340" as="sourcePoint" />
            <mxPoint x="-650" y="290" as="targetPoint" />
          </mxGeometry>
        </mxCell>
        <mxCell id="-omg9IF0iPAO64ioV_1g-12" value="" style="endArrow=none;html=1;rounded=0;entryX=0.5;entryY=1;entryDx=0;entryDy=0;exitX=0.5;exitY=0;exitDx=0;exitDy=0;" edge="1" parent="1" source="-omg9IF0iPAO64ioV_1g-5" target="-omg9IF0iPAO64ioV_1g-1">
          <mxGeometry width="50" height="50" relative="1" as="geometry">
            <mxPoint x="-540" y="420" as="sourcePoint" />
            <mxPoint x="-500" y="340" as="targetPoint" />
          </mxGeometry>
        </mxCell>
        <mxCell id="-omg9IF0iPAO64ioV_1g-13" value="PRODUCTOS" style="rounded=1;whiteSpace=wrap;html=1;" vertex="1" parent="1">
          <mxGeometry x="-380" y="770" width="120" height="60" as="geometry" />
        </mxCell>
        <mxCell id="-omg9IF0iPAO64ioV_1g-14" value="Codigo(Pk)" style="ellipse;whiteSpace=wrap;html=1;" vertex="1" parent="1">
          <mxGeometry x="-520" y="670" width="120" height="80" as="geometry" />
        </mxCell>
        <mxCell id="-omg9IF0iPAO64ioV_1g-15" value="Nombre" style="ellipse;whiteSpace=wrap;html=1;" vertex="1" parent="1">
          <mxGeometry x="-380" y="660" width="120" height="80" as="geometry" />
        </mxCell>
        <mxCell id="-omg9IF0iPAO64ioV_1g-16" value="Descripción" style="ellipse;whiteSpace=wrap;html=1;" vertex="1" parent="1">
          <mxGeometry x="-240" y="670" width="120" height="80" as="geometry" />
        </mxCell>
        <mxCell id="-omg9IF0iPAO64ioV_1g-17" value="Categoria" style="ellipse;whiteSpace=wrap;html=1;" vertex="1" parent="1">
          <mxGeometry x="-530" y="850" width="120" height="80" as="geometry" />
        </mxCell>
        <mxCell id="-omg9IF0iPAO64ioV_1g-18" value="Precio" style="ellipse;whiteSpace=wrap;html=1;" vertex="1" parent="1">
          <mxGeometry x="-380" y="850" width="120" height="80" as="geometry" />
        </mxCell>
        <mxCell id="-omg9IF0iPAO64ioV_1g-19" value="Stock" style="ellipse;whiteSpace=wrap;html=1;" vertex="1" parent="1">
          <mxGeometry x="-240" y="850" width="120" height="80" as="geometry" />
        </mxCell>
        <mxCell id="-omg9IF0iPAO64ioV_1g-24" value="" style="endArrow=none;html=1;rounded=0;entryX=0.5;entryY=1;entryDx=0;entryDy=0;exitX=0.5;exitY=0;exitDx=0;exitDy=0;" edge="1" parent="1" source="-omg9IF0iPAO64ioV_1g-13" target="-omg9IF0iPAO64ioV_1g-15">
          <mxGeometry width="50" height="50" relative="1" as="geometry">
            <mxPoint x="-380" y="780" as="sourcePoint" />
            <mxPoint x="-330" y="730" as="targetPoint" />
          </mxGeometry>
        </mxCell>
        <mxCell id="-omg9IF0iPAO64ioV_1g-25" value="" style="endArrow=none;html=1;rounded=0;entryX=0;entryY=0.5;entryDx=0;entryDy=0;exitX=0.5;exitY=1;exitDx=0;exitDy=0;" edge="1" parent="1" source="-omg9IF0iPAO64ioV_1g-14" target="-omg9IF0iPAO64ioV_1g-13">
          <mxGeometry width="50" height="50" relative="1" as="geometry">
            <mxPoint x="-460" y="790" as="sourcePoint" />
            <mxPoint x="-410" y="740" as="targetPoint" />
          </mxGeometry>
        </mxCell>
        <mxCell id="-omg9IF0iPAO64ioV_1g-26" value="" style="endArrow=none;html=1;rounded=0;entryX=0.5;entryY=1;entryDx=0;entryDy=0;exitX=1;exitY=0;exitDx=0;exitDy=0;" edge="1" parent="1" source="-omg9IF0iPAO64ioV_1g-13" target="-omg9IF0iPAO64ioV_1g-16">
          <mxGeometry width="50" height="50" relative="1" as="geometry">
            <mxPoint x="-70" y="790" as="sourcePoint" />
            <mxPoint x="-20" y="740" as="targetPoint" />
          </mxGeometry>
        </mxCell>
        <mxCell id="-omg9IF0iPAO64ioV_1g-27" value="" style="endArrow=none;html=1;rounded=0;entryX=0.5;entryY=1;entryDx=0;entryDy=0;exitX=0.5;exitY=0;exitDx=0;exitDy=0;" edge="1" parent="1" source="-omg9IF0iPAO64ioV_1g-18" target="-omg9IF0iPAO64ioV_1g-13">
          <mxGeometry width="50" height="50" relative="1" as="geometry">
            <mxPoint x="-350" y="870" as="sourcePoint" />
            <mxPoint x="-300" y="820" as="targetPoint" />
          </mxGeometry>
        </mxCell>
        <mxCell id="-omg9IF0iPAO64ioV_1g-28" value="" style="endArrow=none;html=1;rounded=0;entryX=0.25;entryY=1;entryDx=0;entryDy=0;exitX=0.5;exitY=0;exitDx=0;exitDy=0;" edge="1" parent="1" source="-omg9IF0iPAO64ioV_1g-17" target="-omg9IF0iPAO64ioV_1g-13">
          <mxGeometry width="50" height="50" relative="1" as="geometry">
            <mxPoint x="-350" y="870" as="sourcePoint" />
            <mxPoint x="-300" y="820" as="targetPoint" />
          </mxGeometry>
        </mxCell>
        <mxCell id="-omg9IF0iPAO64ioV_1g-29" value="" style="endArrow=none;html=1;rounded=0;entryX=0.5;entryY=0;entryDx=0;entryDy=0;exitX=0.75;exitY=1;exitDx=0;exitDy=0;" edge="1" parent="1" source="-omg9IF0iPAO64ioV_1g-13" target="-omg9IF0iPAO64ioV_1g-19">
          <mxGeometry width="50" height="50" relative="1" as="geometry">
            <mxPoint x="-350" y="870" as="sourcePoint" />
            <mxPoint x="-300" y="820" as="targetPoint" />
          </mxGeometry>
        </mxCell>
        <mxCell id="-omg9IF0iPAO64ioV_1g-30" value="PROVEEDORES" style="rounded=1;whiteSpace=wrap;html=1;" vertex="1" parent="1">
          <mxGeometry x="141" y="770" width="120" height="60" as="geometry" />
        </mxCell>
        <mxCell id="-omg9IF0iPAO64ioV_1g-31" value="Id(Pk)" style="ellipse;whiteSpace=wrap;html=1;" vertex="1" parent="1">
          <mxGeometry x="-20" y="660" width="120" height="80" as="geometry" />
        </mxCell>
        <mxCell id="-omg9IF0iPAO64ioV_1g-32" value="Nombre" style="ellipse;whiteSpace=wrap;html=1;" vertex="1" parent="1">
          <mxGeometry x="141" y="640" width="120" height="80" as="geometry" />
        </mxCell>
        <mxCell id="-omg9IF0iPAO64ioV_1g-33" value="Contacto" style="ellipse;whiteSpace=wrap;html=1;" vertex="1" parent="1">
          <mxGeometry x="300" y="650" width="120" height="80" as="geometry" />
        </mxCell>
        <mxCell id="-omg9IF0iPAO64ioV_1g-37" value="" style="endArrow=none;html=1;rounded=0;entryX=0.5;entryY=1;entryDx=0;entryDy=0;" edge="1" parent="1" source="-omg9IF0iPAO64ioV_1g-30" target="-omg9IF0iPAO64ioV_1g-32">
          <mxGeometry width="50" height="50" relative="1" as="geometry">
            <mxPoint x="140" y="790" as="sourcePoint" />
            <mxPoint x="190" y="740" as="targetPoint" />
          </mxGeometry>
        </mxCell>
        <mxCell id="-omg9IF0iPAO64ioV_1g-38" value="" style="endArrow=none;html=1;rounded=0;entryX=0.5;entryY=1;entryDx=0;entryDy=0;exitX=1;exitY=0.5;exitDx=0;exitDy=0;" edge="1" parent="1" source="-omg9IF0iPAO64ioV_1g-30" target="-omg9IF0iPAO64ioV_1g-33">
          <mxGeometry width="50" height="50" relative="1" as="geometry">
            <mxPoint x="140" y="790" as="sourcePoint" />
            <mxPoint x="190" y="740" as="targetPoint" />
          </mxGeometry>
        </mxCell>
        <mxCell id="-omg9IF0iPAO64ioV_1g-39" value="" style="endArrow=none;html=1;rounded=0;exitX=0.5;exitY=1;exitDx=0;exitDy=0;entryX=0;entryY=0.5;entryDx=0;entryDy=0;" edge="1" parent="1" source="-omg9IF0iPAO64ioV_1g-31" target="-omg9IF0iPAO64ioV_1g-30">
          <mxGeometry width="50" height="50" relative="1" as="geometry">
            <mxPoint x="140" y="790" as="sourcePoint" />
            <mxPoint x="190" y="740" as="targetPoint" />
          </mxGeometry>
        </mxCell>
        <mxCell id="-omg9IF0iPAO64ioV_1g-43" value="Dirección" style="ellipse;whiteSpace=wrap;html=1;" vertex="1" parent="1">
          <mxGeometry x="141" y="880" width="120" height="80" as="geometry" />
        </mxCell>
        <mxCell id="-omg9IF0iPAO64ioV_1g-44" value="" style="endArrow=none;html=1;rounded=0;entryX=0.5;entryY=1;entryDx=0;entryDy=0;exitX=0.5;exitY=0;exitDx=0;exitDy=0;" edge="1" parent="1" source="-omg9IF0iPAO64ioV_1g-43" target="-omg9IF0iPAO64ioV_1g-30">
          <mxGeometry width="50" height="50" relative="1" as="geometry">
            <mxPoint x="220" y="940" as="sourcePoint" />
            <mxPoint x="270" y="890" as="targetPoint" />
          </mxGeometry>
        </mxCell>
        <mxCell id="-omg9IF0iPAO64ioV_1g-46" value="VENTA" style="rounded=1;whiteSpace=wrap;html=1;" vertex="1" parent="1">
          <mxGeometry x="-120" y="340" width="120" height="60" as="geometry" />
        </mxCell>
        <mxCell id="-omg9IF0iPAO64ioV_1g-47" value="Id_Venta(Pk)" style="ellipse;whiteSpace=wrap;html=1;" vertex="1" parent="1">
          <mxGeometry x="-260" y="240" width="120" height="80" as="geometry" />
        </mxCell>
        <mxCell id="-omg9IF0iPAO64ioV_1g-48" value="Fecha" style="ellipse;whiteSpace=wrap;html=1;" vertex="1" parent="1">
          <mxGeometry x="-120" y="230" width="120" height="80" as="geometry" />
        </mxCell>
        <mxCell id="-omg9IF0iPAO64ioV_1g-49" value="Hora" style="ellipse;whiteSpace=wrap;html=1;" vertex="1" parent="1">
          <mxGeometry x="20" y="240" width="120" height="80" as="geometry" />
        </mxCell>
        <mxCell id="-omg9IF0iPAO64ioV_1g-50" value="Id_Tienda(Fk)" style="ellipse;whiteSpace=wrap;html=1;" vertex="1" parent="1">
          <mxGeometry x="-270" y="420" width="120" height="80" as="geometry" />
        </mxCell>
        <mxCell id="-omg9IF0iPAO64ioV_1g-51" value="Metodo_Pago" style="ellipse;whiteSpace=wrap;html=1;" vertex="1" parent="1">
          <mxGeometry x="-120" y="420" width="120" height="80" as="geometry" />
        </mxCell>
        <mxCell id="-omg9IF0iPAO64ioV_1g-52" value="Descuentos" style="ellipse;whiteSpace=wrap;html=1;" vertex="1" parent="1">
          <mxGeometry x="20" y="420" width="120" height="80" as="geometry" />
        </mxCell>
        <mxCell id="-omg9IF0iPAO64ioV_1g-53" value="" style="endArrow=none;html=1;rounded=0;entryX=0.5;entryY=1;entryDx=0;entryDy=0;exitX=0.5;exitY=0;exitDx=0;exitDy=0;" edge="1" parent="1" source="-omg9IF0iPAO64ioV_1g-46" target="-omg9IF0iPAO64ioV_1g-48">
          <mxGeometry width="50" height="50" relative="1" as="geometry">
            <mxPoint x="-120" y="350" as="sourcePoint" />
            <mxPoint x="-70" y="300" as="targetPoint" />
          </mxGeometry>
        </mxCell>
        <mxCell id="-omg9IF0iPAO64ioV_1g-54" value="" style="endArrow=none;html=1;rounded=0;entryX=0;entryY=0;entryDx=0;entryDy=0;exitX=0.5;exitY=1;exitDx=0;exitDy=0;" edge="1" parent="1" source="-omg9IF0iPAO64ioV_1g-47" target="-omg9IF0iPAO64ioV_1g-46">
          <mxGeometry width="50" height="50" relative="1" as="geometry">
            <mxPoint x="-200" y="360" as="sourcePoint" />
            <mxPoint x="-150" y="310" as="targetPoint" />
          </mxGeometry>
        </mxCell>
        <mxCell id="-omg9IF0iPAO64ioV_1g-55" value="" style="endArrow=none;html=1;rounded=0;entryX=0.5;entryY=1;entryDx=0;entryDy=0;exitX=1;exitY=0.542;exitDx=0;exitDy=0;exitPerimeter=0;" edge="1" parent="1" source="-omg9IF0iPAO64ioV_1g-46" target="-omg9IF0iPAO64ioV_1g-49">
          <mxGeometry width="50" height="50" relative="1" as="geometry">
            <mxPoint x="190" y="360" as="sourcePoint" />
            <mxPoint x="240" y="310" as="targetPoint" />
          </mxGeometry>
        </mxCell>
        <mxCell id="-omg9IF0iPAO64ioV_1g-56" value="" style="endArrow=none;html=1;rounded=0;entryX=0.5;entryY=1;entryDx=0;entryDy=0;exitX=0.5;exitY=0;exitDx=0;exitDy=0;" edge="1" parent="1" source="-omg9IF0iPAO64ioV_1g-51" target="-omg9IF0iPAO64ioV_1g-46">
          <mxGeometry width="50" height="50" relative="1" as="geometry">
            <mxPoint x="-90" y="440" as="sourcePoint" />
            <mxPoint x="-40" y="390" as="targetPoint" />
          </mxGeometry>
        </mxCell>
        <mxCell id="-omg9IF0iPAO64ioV_1g-57" value="" style="endArrow=none;html=1;rounded=0;entryX=0.25;entryY=1;entryDx=0;entryDy=0;exitX=0.5;exitY=0;exitDx=0;exitDy=0;" edge="1" parent="1" source="-omg9IF0iPAO64ioV_1g-50" target="-omg9IF0iPAO64ioV_1g-46">
          <mxGeometry width="50" height="50" relative="1" as="geometry">
            <mxPoint x="-90" y="440" as="sourcePoint" />
            <mxPoint x="-40" y="390" as="targetPoint" />
          </mxGeometry>
        </mxCell>
        <mxCell id="-omg9IF0iPAO64ioV_1g-58" value="" style="endArrow=none;html=1;rounded=0;entryX=0.5;entryY=0;entryDx=0;entryDy=0;exitX=0.75;exitY=1;exitDx=0;exitDy=0;" edge="1" parent="1" source="-omg9IF0iPAO64ioV_1g-46" target="-omg9IF0iPAO64ioV_1g-52">
          <mxGeometry width="50" height="50" relative="1" as="geometry">
            <mxPoint x="-90" y="440" as="sourcePoint" />
            <mxPoint x="-40" y="390" as="targetPoint" />
          </mxGeometry>
        </mxCell>
        <mxCell id="-omg9IF0iPAO64ioV_1g-59" value="Detalle_Venta" style="rounded=1;whiteSpace=wrap;html=1;" vertex="1" parent="1">
          <mxGeometry x="370" y="335" width="120" height="60" as="geometry" />
        </mxCell>
        <mxCell id="-omg9IF0iPAO64ioV_1g-60" value="Id_Detalle(Pk)" style="ellipse;whiteSpace=wrap;html=1;" vertex="1" parent="1">
          <mxGeometry x="230" y="235" width="120" height="80" as="geometry" />
        </mxCell>
        <mxCell id="-omg9IF0iPAO64ioV_1g-61" value="Id_Venta(Pk)" style="ellipse;whiteSpace=wrap;html=1;" vertex="1" parent="1">
          <mxGeometry x="370" y="225" width="120" height="80" as="geometry" />
        </mxCell>
        <mxCell id="-omg9IF0iPAO64ioV_1g-62" value="Código_Producto(Fk)" style="ellipse;whiteSpace=wrap;html=1;" vertex="1" parent="1">
          <mxGeometry x="510" y="235" width="120" height="80" as="geometry" />
        </mxCell>
        <mxCell id="-omg9IF0iPAO64ioV_1g-63" value="Cantidad" style="ellipse;whiteSpace=wrap;html=1;" vertex="1" parent="1">
          <mxGeometry x="220" y="415" width="120" height="80" as="geometry" />
        </mxCell>
        <mxCell id="-omg9IF0iPAO64ioV_1g-64" value="Precio_Unitario" style="ellipse;whiteSpace=wrap;html=1;" vertex="1" parent="1">
          <mxGeometry x="370" y="415" width="120" height="80" as="geometry" />
        </mxCell>
        <mxCell id="-omg9IF0iPAO64ioV_1g-66" value="" style="endArrow=none;html=1;rounded=0;entryX=0.5;entryY=1;entryDx=0;entryDy=0;exitX=0.5;exitY=0;exitDx=0;exitDy=0;" edge="1" parent="1" source="-omg9IF0iPAO64ioV_1g-59" target="-omg9IF0iPAO64ioV_1g-61">
          <mxGeometry width="50" height="50" relative="1" as="geometry">
            <mxPoint x="370" y="345" as="sourcePoint" />
            <mxPoint x="420" y="295" as="targetPoint" />
          </mxGeometry>
        </mxCell>
        <mxCell id="-omg9IF0iPAO64ioV_1g-67" value="" style="endArrow=none;html=1;rounded=0;entryX=0;entryY=0.5;entryDx=0;entryDy=0;exitX=0.5;exitY=1;exitDx=0;exitDy=0;" edge="1" parent="1" source="-omg9IF0iPAO64ioV_1g-60" target="-omg9IF0iPAO64ioV_1g-59">
          <mxGeometry width="50" height="50" relative="1" as="geometry">
            <mxPoint x="290" y="355" as="sourcePoint" />
            <mxPoint x="340" y="305" as="targetPoint" />
          </mxGeometry>
        </mxCell>
        <mxCell id="-omg9IF0iPAO64ioV_1g-68" value="" style="endArrow=none;html=1;rounded=0;entryX=0.5;entryY=1;entryDx=0;entryDy=0;exitX=1;exitY=0.542;exitDx=0;exitDy=0;exitPerimeter=0;" edge="1" parent="1" source="-omg9IF0iPAO64ioV_1g-59" target="-omg9IF0iPAO64ioV_1g-62">
          <mxGeometry width="50" height="50" relative="1" as="geometry">
            <mxPoint x="680" y="355" as="sourcePoint" />
            <mxPoint x="730" y="305" as="targetPoint" />
          </mxGeometry>
        </mxCell>
        <mxCell id="-omg9IF0iPAO64ioV_1g-69" value="" style="endArrow=none;html=1;rounded=0;entryX=0.5;entryY=1;entryDx=0;entryDy=0;exitX=0.5;exitY=0;exitDx=0;exitDy=0;" edge="1" parent="1" source="-omg9IF0iPAO64ioV_1g-64" target="-omg9IF0iPAO64ioV_1g-59">
          <mxGeometry width="50" height="50" relative="1" as="geometry">
            <mxPoint x="400" y="435" as="sourcePoint" />
            <mxPoint x="450" y="385" as="targetPoint" />
          </mxGeometry>
        </mxCell>
        <mxCell id="-omg9IF0iPAO64ioV_1g-70" value="" style="endArrow=none;html=1;rounded=0;entryX=0.25;entryY=1;entryDx=0;entryDy=0;exitX=0.5;exitY=0;exitDx=0;exitDy=0;" edge="1" parent="1" source="-omg9IF0iPAO64ioV_1g-63" target="-omg9IF0iPAO64ioV_1g-59">
          <mxGeometry width="50" height="50" relative="1" as="geometry">
            <mxPoint x="400" y="435" as="sourcePoint" />
            <mxPoint x="450" y="385" as="targetPoint" />
          </mxGeometry>
        </mxCell>
        <mxCell id="-omg9IF0iPAO64ioV_1g-72" value="PRODUCTOS_PROVEEDOR" style="rounded=1;whiteSpace=wrap;html=1;" vertex="1" parent="1">
          <mxGeometry x="-990" y="770" width="174" height="60" as="geometry" />
        </mxCell>
        <mxCell id="-omg9IF0iPAO64ioV_1g-73" value="Código_Producto(Fk)" style="ellipse;whiteSpace=wrap;html=1;" vertex="1" parent="1">
          <mxGeometry x="-1110" y="670" width="120" height="80" as="geometry" />
        </mxCell>
        <mxCell id="-omg9IF0iPAO64ioV_1g-74" value="Id_Proveedor(Fk)" style="ellipse;whiteSpace=wrap;html=1;" vertex="1" parent="1">
          <mxGeometry x="-963" y="660" width="120" height="80" as="geometry" />
        </mxCell>
        <mxCell id="-omg9IF0iPAO64ioV_1g-75" value="Precio_Compra" style="ellipse;whiteSpace=wrap;html=1;" vertex="1" parent="1">
          <mxGeometry x="-816" y="660" width="120" height="80" as="geometry" />
        </mxCell>
        <mxCell id="-omg9IF0iPAO64ioV_1g-77" value="Tiempo_Entrega" style="ellipse;whiteSpace=wrap;html=1;" vertex="1" parent="1">
          <mxGeometry x="-963" y="850" width="120" height="80" as="geometry" />
        </mxCell>
        <mxCell id="-omg9IF0iPAO64ioV_1g-79" value="" style="endArrow=none;html=1;rounded=0;entryX=0.5;entryY=1;entryDx=0;entryDy=0;exitX=0.5;exitY=0;exitDx=0;exitDy=0;" edge="1" parent="1" source="-omg9IF0iPAO64ioV_1g-72" target="-omg9IF0iPAO64ioV_1g-74">
          <mxGeometry width="50" height="50" relative="1" as="geometry">
            <mxPoint x="-990" y="780" as="sourcePoint" />
            <mxPoint x="-940" y="730" as="targetPoint" />
          </mxGeometry>
        </mxCell>
        <mxCell id="-omg9IF0iPAO64ioV_1g-80" value="" style="endArrow=none;html=1;rounded=0;entryX=0;entryY=0.5;entryDx=0;entryDy=0;exitX=0.5;exitY=1;exitDx=0;exitDy=0;" edge="1" parent="1" source="-omg9IF0iPAO64ioV_1g-73" target="-omg9IF0iPAO64ioV_1g-72">
          <mxGeometry width="50" height="50" relative="1" as="geometry">
            <mxPoint x="-1070" y="790" as="sourcePoint" />
            <mxPoint x="-1020" y="740" as="targetPoint" />
          </mxGeometry>
        </mxCell>
        <mxCell id="-omg9IF0iPAO64ioV_1g-81" value="" style="endArrow=none;html=1;rounded=0;entryX=0.5;entryY=1;entryDx=0;entryDy=0;exitX=1;exitY=0;exitDx=0;exitDy=0;" edge="1" parent="1" source="-omg9IF0iPAO64ioV_1g-72" target="-omg9IF0iPAO64ioV_1g-75">
          <mxGeometry width="50" height="50" relative="1" as="geometry">
            <mxPoint x="-680" y="790" as="sourcePoint" />
            <mxPoint x="-630" y="740" as="targetPoint" />
          </mxGeometry>
        </mxCell>
        <mxCell id="-omg9IF0iPAO64ioV_1g-82" value="" style="endArrow=none;html=1;rounded=0;entryX=0.5;entryY=1;entryDx=0;entryDy=0;exitX=0.5;exitY=0;exitDx=0;exitDy=0;" edge="1" parent="1" source="-omg9IF0iPAO64ioV_1g-77" target="-omg9IF0iPAO64ioV_1g-72">
          <mxGeometry width="50" height="50" relative="1" as="geometry">
            <mxPoint x="-960" y="870" as="sourcePoint" />
            <mxPoint x="-910" y="820" as="targetPoint" />
          </mxGeometry>
        </mxCell>
        <mxCell id="-omg9IF0iPAO64ioV_1g-91" value="" style="edgeStyle=entityRelationEdgeStyle;fontSize=12;html=1;endArrow=ERzeroToMany;startArrow=ERmandOne;rounded=0;exitX=1;exitY=0.5;exitDx=0;exitDy=0;entryX=0;entryY=0.5;entryDx=0;entryDy=0;" edge="1" parent="1" source="-omg9IF0iPAO64ioV_1g-85" target="-omg9IF0iPAO64ioV_1g-46">
          <mxGeometry width="100" height="100" relative="1" as="geometry">
            <mxPoint x="-100" y="400" as="sourcePoint" />
            <mxPoint y="300" as="targetPoint" />
            <Array as="points">
              <mxPoint x="-280" y="410" />
            </Array>
          </mxGeometry>
        </mxCell>
        <mxCell id="-omg9IF0iPAO64ioV_1g-92" value="" style="edgeStyle=entityRelationEdgeStyle;fontSize=12;html=1;endArrow=ERzeroToMany;startArrow=ERmandOne;rounded=0;exitX=1;exitY=0.5;exitDx=0;exitDy=0;entryX=0;entryY=0.5;entryDx=0;entryDy=0;" edge="1" parent="1" source="-omg9IF0iPAO64ioV_1g-1" target="-omg9IF0iPAO64ioV_1g-85">
          <mxGeometry width="100" height="100" relative="1" as="geometry">
            <mxPoint x="-480" y="370" as="sourcePoint" />
            <mxPoint x="-120" y="370" as="targetPoint" />
            <Array as="points">
              <mxPoint x="-250" y="350" />
              <mxPoint x="-320" y="410" />
            </Array>
          </mxGeometry>
        </mxCell>
        <mxCell id="-omg9IF0iPAO64ioV_1g-85" value="Tienda_Venta" style="rhombus;whiteSpace=wrap;html=1;" vertex="1" parent="1">
          <mxGeometry x="-350" y="335" width="80" height="80" as="geometry" />
        </mxCell>
        <mxCell id="-omg9IF0iPAO64ioV_1g-96" value="" style="edgeStyle=entityRelationEdgeStyle;fontSize=12;html=1;endArrow=ERmany;rounded=0;exitX=1;exitY=0.5;exitDx=0;exitDy=0;entryX=0;entryY=0.5;entryDx=0;entryDy=0;" edge="1" parent="1" source="-omg9IF0iPAO64ioV_1g-95" target="-omg9IF0iPAO64ioV_1g-59">
          <mxGeometry width="100" height="100" relative="1" as="geometry">
            <mxPoint x="350" y="390" as="sourcePoint" />
            <mxPoint x="450" y="290" as="targetPoint" />
          </mxGeometry>
        </mxCell>
        <mxCell id="-omg9IF0iPAO64ioV_1g-97" value="" style="edgeStyle=entityRelationEdgeStyle;fontSize=12;html=1;endArrow=ERmany;rounded=0;exitX=1;exitY=0.5;exitDx=0;exitDy=0;entryX=0;entryY=0.5;entryDx=0;entryDy=0;" edge="1" parent="1" source="-omg9IF0iPAO64ioV_1g-46" target="-omg9IF0iPAO64ioV_1g-95">
          <mxGeometry width="100" height="100" relative="1" as="geometry">
            <mxPoint y="370" as="sourcePoint" />
            <mxPoint x="370" y="365" as="targetPoint" />
          </mxGeometry>
        </mxCell>
        <mxCell id="-omg9IF0iPAO64ioV_1g-95" value="Venta_Detalle" style="shape=rhombus;perimeter=rhombusPerimeter;whiteSpace=wrap;html=1;align=center;" vertex="1" parent="1">
          <mxGeometry x="120" y="340" width="120" height="60" as="geometry" />
        </mxCell>
        <mxCell id="-omg9IF0iPAO64ioV_1g-99" value="" style="edgeStyle=entityRelationEdgeStyle;fontSize=12;html=1;endArrow=ERzeroToMany;startArrow=ERmandOne;rounded=0;exitX=0;exitY=0.5;exitDx=0;exitDy=0;entryX=1;entryY=0.5;entryDx=0;entryDy=0;" edge="1" parent="1" source="-omg9IF0iPAO64ioV_1g-98" target="-omg9IF0iPAO64ioV_1g-13">
          <mxGeometry width="100" height="100" relative="1" as="geometry">
            <mxPoint x="-50" y="990" as="sourcePoint" />
            <mxPoint x="50" y="890" as="targetPoint" />
          </mxGeometry>
        </mxCell>
        <mxCell id="-omg9IF0iPAO64ioV_1g-100" value="" style="edgeStyle=entityRelationEdgeStyle;fontSize=12;html=1;endArrow=ERzeroToMany;startArrow=ERmandOne;rounded=0;exitX=0;exitY=0.5;exitDx=0;exitDy=0;entryX=1;entryY=0.5;entryDx=0;entryDy=0;" edge="1" parent="1" source="-omg9IF0iPAO64ioV_1g-30" target="-omg9IF0iPAO64ioV_1g-98">
          <mxGeometry width="100" height="100" relative="1" as="geometry">
            <mxPoint x="141" y="800" as="sourcePoint" />
            <mxPoint x="-260" y="800" as="targetPoint" />
          </mxGeometry>
        </mxCell>
        <mxCell id="-omg9IF0iPAO64ioV_1g-98" value="proveedor_Producto" style="shape=rhombus;perimeter=rhombusPerimeter;whiteSpace=wrap;html=1;align=center;" vertex="1" parent="1">
          <mxGeometry x="-110" y="770" width="124" height="70" as="geometry" />
        </mxCell>
        <mxCell id="-omg9IF0iPAO64ioV_1g-102" value="" style="edgeStyle=entityRelationEdgeStyle;fontSize=12;html=1;endArrow=ERzeroToMany;startArrow=ERmandOne;rounded=0;exitX=1;exitY=0.5;exitDx=0;exitDy=0;entryX=0;entryY=0.5;entryDx=0;entryDy=0;" edge="1" parent="1" source="-omg9IF0iPAO64ioV_1g-101" target="-omg9IF0iPAO64ioV_1g-13">
          <mxGeometry width="100" height="100" relative="1" as="geometry">
            <mxPoint x="-400" y="930" as="sourcePoint" />
            <mxPoint x="-300" y="830" as="targetPoint" />
          </mxGeometry>
        </mxCell>
        <mxCell id="-omg9IF0iPAO64ioV_1g-103" value="" style="edgeStyle=entityRelationEdgeStyle;fontSize=12;html=1;endArrow=ERzeroToMany;startArrow=ERmandOne;rounded=0;exitX=1;exitY=0.5;exitDx=0;exitDy=0;entryX=0;entryY=0.5;entryDx=0;entryDy=0;" edge="1" parent="1" source="-omg9IF0iPAO64ioV_1g-72" target="-omg9IF0iPAO64ioV_1g-101">
          <mxGeometry width="100" height="100" relative="1" as="geometry">
            <mxPoint x="-816" y="800" as="sourcePoint" />
            <mxPoint x="-380" y="800" as="targetPoint" />
          </mxGeometry>
        </mxCell>
        <mxCell id="-omg9IF0iPAO64ioV_1g-101" value="Relationship" style="shape=rhombus;perimeter=rhombusPerimeter;whiteSpace=wrap;html=1;align=center;" vertex="1" parent="1">
          <mxGeometry x="-680" y="770" width="120" height="60" as="geometry" />
        </mxCell>
      </root>
    </mxGraphModel>
  </diagram>
</mxfile>
